<?xml version="1.0" standalone="no"?>
<!DOCTYPE svg PUBLIC "-//W3C//DTD SVG 20010904//EN"
 "http://www.w3.org/TR/2001/REC-SVG-20010904/DTD/svg10.dtd">
<svg version="1.0" xmlns="http://www.w3.org/2000/svg"
 width="7536.000000pt" height="5726.000000pt" viewBox="0 0 7536.000000 5726.000000"
 preserveAspectRatio="xMidYMid meet">

<g transform="translate(0.000000,5726.000000) scale(0.100000,-0.100000)"
fill="#000000" stroke="none">
<path d="M36600 55414 c-722 -24 -1060 -39 -1530 -69 -5483 -354 -10967 -1878
-16230 -4510 -1721 -861 -3066 -1587 -3318 -1792 -116 -94 -211 -443 -326
-1188 -230 -1494 -494 -4812 -631 -7925 -54 -1244 -56 -1648 -9 -2265 19 -252
18 -444 -1 -519 -39 -151 -151 -222 -436 -280 -68 -13 -304 -50 -524 -81 -822
-115 -1279 -188 -1835 -292 -296 -55 -1588 -319 -2118 -432 -1843 -395 -2912
-711 -3210 -951 -91 -73 -82 -81 115 -99 366 -34 1080 -58 2523 -83 976 -18
5601 -18 6365 0 793 18 1398 43 1414 58 2 2 11 63 20 136 24 208 22 1366 -4
1968 -34 776 -26 2719 15 3860 57 1567 153 2662 455 5230 154 1309 163 1382
172 1391 4 4 67 33 138 65 200 89 715 352 1070 546 176 96 415 227 530 290
475 260 727 386 1480 740 683 322 1328 609 1905 850 5850 2441 11863 3434
17815 2942 3918 -323 7792 -1295 11530 -2891 1128 -482 2120 -961 3375 -1628
168 -90 515 -271 771 -403 629 -324 740 -391 856 -516 115 -122 145 -221 188
-606 14 -129 46 -397 70 -595 227 -1847 370 -3578 440 -5315 48 -1203 54
-2460 17 -3540 -29 -826 -38 -1622 -23 -1969 10 -239 30 -542 36 -549 2 -2
9919 -31 10913 -32 l373 0 -30 44 c-224 325 -1437 718 -3506 1136 -1389 280
-3295 593 -5005 820 -206 28 -377 54 -381 58 -7 7 -33 400 -49 747 -19 411
-30 965 -40 2030 -16 1691 -31 2189 -96 3055 -70 944 -180 2038 -340 3365
-111 926 -245 1994 -269 2145 -104 636 -256 802 -1183 1284 -141 73 -459 235
-707 359 -247 124 -621 314 -830 422 -1609 830 -2941 1451 -4460 2080 -3680
1524 -7503 2459 -11389 2785 -584 49 -1065 79 -1806 111 -223 10 -2076 20
-2300 13z"/>
<path d="M36880 52543 c-3928 -58 -7976 -854 -11980 -2353 -1461 -547 -2632
-1059 -4165 -1820 -506 -252 -799 -408 -947 -506 -97 -64 -98 -66 -137 -147
-172 -356 -315 -1603 -426 -3697 -98 -1859 -135 -3104 -135 -4540 0 -1367 33
-2367 115 -3475 16 -205 86 -998 89 -1002 1 -2 28173 -39 33696 -45 l2205 -2
18 70 c99 390 189 1225 237 2204 68 1399 68 3495 0 5120 -24 560 -40 823 -90
1440 -42 515 -74 992 -115 1690 -19 333 -44 722 -56 865 -97 1250 -285 1558
-1244 2038 -232 116 -411 198 -1030 472 -264 117 -653 290 -865 385 -1025 459
-1881 809 -2805 1147 -4119 1505 -8209 2218 -12365 2156z m11100 -7163 c381
-24 662 -61 1508 -200 1283 -210 1902 -272 2747 -274 504 -1 679 16 1225 119
309 58 511 90 631 101 l77 7 -9 -46 c-25 -138 -69 -249 -128 -326 -14 -18 -68
-68 -121 -111 -52 -42 -123 -107 -157 -143 -141 -151 -191 -295 -388 -1112
-293 -1213 -479 -1784 -780 -2386 -226 -451 -436 -750 -740 -1055 -482 -483
-768 -582 -1575 -545 -140 6 -274 14 -298 18 l-44 6 29 19 c80 54 227 136 498
276 609 314 874 492 1160 777 161 160 242 258 360 435 160 241 268 465 365
760 141 425 206 849 217 1415 5 261 -9 750 -23 764 -2 2 -92 -1 -201 -8 -485
-28 -1031 -45 -1973 -61 -1334 -23 -1930 -47 -2570 -106 -1481 -135 -2506
-451 -3233 -998 -125 -94 -293 -243 -377 -335 -108 -118 -212 -252 -448 -581
-331 -461 -476 -639 -668 -818 -192 -180 -405 -307 -594 -357 -353 -92 -1102
-100 -2895 -30 -352 14 -649 26 -660 28 -29 3 142 64 260 92 241 58 465 72
1210 79 824 8 1100 34 1410 133 246 78 401 176 600 377 486 493 920 1290 1020
1875 16 90 26 313 15 325 -11 10 -233 46 -402 63 -145 15 -264 18 -733 18
-318 0 -661 -6 -795 -13 -129 -7 -435 -24 -680 -37 -245 -13 -551 -30 -680
-37 -302 -16 -1961 -16 -2635 1 -1131 27 -1784 52 -3845 146 -2718 125 -3745
155 -5275 155 -806 0 -1220 -8 -1630 -30 -1470 -80 -2306 -311 -2965 -820
-123 -95 -372 -345 -484 -485 -367 -461 -685 -1108 -1004 -2046 -131 -386
-211 -650 -199 -654 7 -2 410 -75 897 -162 795 -142 879 -159 825 -164 -33 -4
-853 -7 -1823 -8 l-1763 -1 15 28 c35 67 171 227 349 410 106 108 218 229 249
267 175 219 308 489 551 1121 259 672 377 920 593 1247 353 531 867 962 1469
1228 1310 579 3603 844 7060 815 1249 -10 1980 -30 4225 -116 2509 -96 3021
-104 4500 -70 2910 68 5066 321 6775 795 565 157 830 205 1315 238 111 8 490
6 640 -3z"/>
<path d="M5415 29738 c-1232 -2009 -2288 -3725 -2347 -3813 -339 -509 -600
-698 -1018 -736 -63 -6 -139 -13 -167 -15 l-53 -5 0 -395 0 -394 1335 0 1335
0 0 405 0 405 -380 0 c-315 0 -387 3 -416 15 -32 13 -35 18 -30 42 8 34 11 38
524 873 l409 665 997 3 c793 2 996 0 996 -10 0 -7 29 -352 65 -767 36 -415 65
-770 65 -788 l0 -33 -465 0 -465 0 0 -405 0 -405 2195 0 2195 0 0 405 0 405
-489 0 -490 0 -6 43 c-3 23 -174 1853 -380 4067 -206 2214 -377 4040 -380
4058 l-6 32 -392 0 -393 0 -2239 -3652z m1044 -1013 c45 -539 85 -1006 88
-1037 l6 -58 -722 0 c-446 0 -721 4 -719 9 11 32 1254 2079 1259 2073 3 -4 43
-448 88 -987z"/>
<path d="M31320 33380 c-893 -59 -1734 -347 -2530 -868 -678 -443 -1309 -1078
-1776 -1787 -514 -782 -824 -1602 -931 -2465 -25 -203 -25 -796 0 -1018 102
-903 408 -1584 957 -2132 230 -230 473 -408 755 -552 378 -192 779 -308 1250
-360 161 -18 807 -18 970 0 973 106 1833 437 2630 1011 426 306 905 773 1253
1220 626 803 1036 1733 1181 2676 34 216 52 428 58 675 24 957 -220 1767 -720
2393 -108 135 -346 373 -477 477 -456 362 -998 591 -1620 685 -280 43 -727 63
-1000 45z m607 -765 c447 -66 637 -223 699 -578 20 -113 14 -500 -11 -727 -62
-569 -222 -1452 -491 -2720 -270 -1274 -513 -2070 -814 -2670 -299 -594 -590
-845 -1106 -949 -171 -35 -307 -44 -581 -38 -353 6 -557 43 -733 132 -182 92
-285 245 -337 501 -22 110 -25 492 -5 654 97 784 411 2372 683 3454 337 1339
689 2195 1053 2559 231 231 578 362 1050 397 154 12 464 4 593 -15z"/>
<path d="M70390 33379 c-902 -72 -1659 -541 -2142 -1325 -213 -346 -350 -755
-404 -1209 -23 -195 -23 -568 0 -735 118 -867 561 -1408 1640 -2004 87 -49
352 -184 590 -301 237 -117 491 -250 565 -294 419 -253 699 -534 810 -811 51
-128 65 -223 58 -395 -16 -394 -128 -677 -362 -910 -229 -230 -557 -369 -977
-414 -145 -16 -477 -14 -615 4 -479 62 -872 282 -1172 655 -284 353 -462 847
-510 1415 -6 72 -14 160 -17 198 l-6 67 -408 0 -408 0 -7 -47 c-3 -27 -105
-698 -226 -1492 -120 -795 -219 -1453 -219 -1463 0 -17 17 -18 288 -18 l288 0
348 245 c192 134 354 242 360 238 6 -4 52 -32 101 -63 234 -148 511 -281 757
-364 371 -125 704 -177 1138 -177 491 0 880 69 1285 228 406 160 754 390 1075
713 536 538 841 1170 945 1960 23 167 31 618 16 776 -82 820 -496 1435 -1338
1988 -278 182 -356 224 -1203 639 -848 415 -1289 820 -1290 1183 0 78 27 218
59 299 118 305 457 544 863 610 291 47 658 19 927 -72 520 -174 871 -588 1014
-1198 46 -196 77 -477 77 -707 l0 -98 435 0 c341 0 435 3 435 13 0 13 345
2596 356 2660 l6 37 -286 0 -287 0 -259 -200 -260 -201 -72 49 c-191 128 -482
277 -688 352 -395 144 -847 203 -1280 169z"/>
<path d="M10520 32820 l0 -400 499 0 499 0 6 -42 c3 -24 177 -1865 386 -4093
210 -2227 383 -4060 386 -4072 l4 -23 383 0 382 0 2275 3732 c1251 2053 2308
3783 2347 3846 233 365 423 546 644 613 121 37 135 150 -126 -1036 -128 -577
-235 -1062 -238 -1077 l-7 -28 398 0 399 0 63 143 c198 448 420 827 664 1131
96 120 300 327 409 415 259 209 556 357 877 437 132 32 348 69 357 60 5 -5
-1524 -7191 -1537 -7223 l-10 -23 -560 0 -560 0 0 -400 0 -400 2375 0 2375 0
0 400 0 400 -526 0 -526 0 5 28 c3 15 346 1636 762 3602 416 1966 759 3588
762 3604 l6 29 96 -7 c352 -25 646 -157 871 -393 306 -320 495 -840 583 -1608
l22 -190 382 -3 383 -2 4 22 c3 13 55 669 115 1458 61 789 113 1450 115 1468
l5 32 -5075 0 -5074 0 0 -399 0 -400 388 -3 c334 -3 392 -5 423 -19 46 -21 51
-29 51 -83 0 -52 -38 -151 -100 -261 -79 -141 -2504 -4106 -2509 -4102 -3 4
-393 4426 -393 4459 0 5 205 8 455 8 l455 0 0 400 0 400 -2185 0 -2185 0 0
-400z"/>
<path d="M40780 32820 l0 -400 446 0 446 0 -8 -32 c-4 -18 -354 -1644 -779
-3613 l-772 -3580 -524 -5 -524 -5 -3 -402 -2 -403 2260 0 2260 0 -2 403 -3
402 -469 3 -468 2 5 23 c3 12 164 758 357 1657 193 899 354 1646 359 1660 8
23 13 16 54 -70 24 -52 383 -804 797 -1670 413 -866 754 -1581 757 -1587 4
-10 -89 -13 -446 -13 l-451 0 0 -405 0 -405 2265 0 2265 0 0 405 0 405 -493 0
-492 0 -1149 2381 -1149 2381 24 23 c13 12 443 382 954 821 512 439 1010 867
1107 951 616 531 967 673 1665 673 l163 0 0 400 0 400 -1665 0 -1665 0 0 -399
0 -400 489 -3 c269 -2 493 -7 497 -11 5 -4 -21 -37 -56 -72 -79 -77 -3252
-2826 -3258 -2821 -2 2 132 636 298 1408 166 771 306 1424 311 1451 l11 47
519 0 519 0 0 400 0 400 -2225 0 -2225 0 0 -400z"/>
<path d="M49430 32820 l0 -400 450 0 c411 0 450 -1 450 -16 0 -10 -225 -1041
-499 -2293 -275 -1252 -518 -2368 -540 -2481 -168 -868 -187 -1291 -75 -1735
101 -398 330 -753 659 -1018 419 -337 965 -545 1660 -632 442 -55 999 -58
1450 -9 684 75 1253 275 1670 589 508 383 876 990 1085 1789 21 83 278 1242
569 2576 307 1403 548 2482 572 2560 47 158 103 297 150 377 125 212 346 293
807 293 l132 0 0 400 0 400 -1430 0 -1430 0 0 -400 0 -400 153 0 c292 0 509
-26 612 -74 150 -69 178 -187 129 -536 -17 -118 -998 -4634 -1074 -4945 -53
-214 -144 -496 -211 -648 -253 -574 -577 -892 -1080 -1056 -428 -140 -1027
-157 -1384 -40 -102 34 -236 106 -317 169 -228 182 -348 477 -348 858 0 204
41 554 101 862 24 123 1096 5079 1155 5343 l16 67 524 0 524 0 0 400 0 400
-2240 0 -2240 0 0 -400z"/>
<path d="M58760 32820 l0 -400 441 0 c349 0 440 -3 437 -12 -3 -7 -348 -1634
-769 -3615 l-764 -3603 -527 0 -528 0 0 -405 0 -405 2255 0 2255 0 0 405 0
405 -481 0 -481 0 6 24 c12 48 736 3470 736 3479 0 17 495 2 580 -18 320 -72
475 -245 549 -610 36 -180 43 -352 32 -865 -13 -671 1 -929 69 -1270 69 -347
188 -642 360 -894 319 -467 796 -738 1440 -818 153 -19 608 -16 780 6 436 54
785 170 1140 382 l110 65 0 409 0 410 -22 -9 c-13 -5 -77 -32 -143 -61 -255
-110 -414 -152 -580 -154 -81 -1 -95 2 -136 26 -64 37 -105 88 -150 182 -71
148 -110 351 -128 666 -6 96 -15 263 -21 370 -30 521 -87 874 -190 1175 -186
538 -477 866 -1000 1129 -80 40 -196 92 -257 116 -62 24 -111 45 -109 47 2 2
81 17 177 33 678 116 1204 302 1599 565 308 205 543 469 684 765 176 374 222
828 130 1290 -71 355 -206 614 -448 856 -265 264 -576 423 -1072 548 -321 80
-625 124 -1159 168 -97 7 -860 12 -2477 15 l-2338 4 0 -401z m4596 -427 c288
-65 364 -202 351 -633 -13 -409 -108 -891 -273 -1379 -179 -531 -323 -691
-720 -794 -204 -53 -276 -59 -752 -64 -428 -5 -444 -4 -438 14 3 10 141 659
306 1442 165 783 303 1428 307 1433 3 6 225 8 567 5 517 -4 568 -6 652 -24z"/>
<path d="M17605 22961 c-238 -39 -406 -146 -488 -313 -130 -264 -19 -573 253
-705 111 -53 168 -72 422 -139 248 -65 329 -99 372 -161 24 -35 29 -52 29
-101 0 -147 -115 -250 -304 -271 -265 -30 -443 83 -500 314 -6 28 -13 52 -15
53 -1 2 -89 -4 -194 -14 l-191 -18 6 -40 c34 -217 140 -405 284 -500 150 -100
280 -131 536 -130 215 0 319 20 454 85 200 97 321 294 321 522 0 117 -13 179
-60 273 -67 136 -185 229 -380 299 -41 14 -168 51 -282 80 -113 30 -237 67
-274 82 -160 65 -203 190 -98 282 70 61 125 76 284 76 120 0 141 -3 188 -24
74 -33 127 -97 154 -184 l21 -70 120 7 c66 3 150 6 186 6 36 0 71 4 77 8 8 5
9 26 3 72 -18 131 -77 250 -171 342 -61 59 -201 129 -308 153 -84 20 -362 29
-445 16z"/>
<path d="M30685 22964 c-347 -51 -604 -263 -713 -591 -82 -243 -86 -585 -11
-828 128 -419 521 -662 975 -605 284 35 486 173 607 416 35 70 82 202 75 209
-4 4 -355 116 -371 119 -5 0 -18 -30 -31 -69 -29 -89 -54 -138 -104 -200 -150
-187 -455 -193 -635 -13 -95 94 -138 214 -157 436 -12 136 -1 315 25 417 65
252 242 386 493 373 81 -5 102 -10 167 -42 48 -24 88 -53 116 -84 43 -48 99
-153 99 -185 0 -13 5 -17 18 -13 9 3 96 24 192 47 96 22 177 43 179 45 7 7
-29 114 -56 169 -43 85 -111 172 -176 226 -72 59 -214 130 -307 154 -63 16
-317 29 -385 19z"/>
<path d="M44170 22955 c-210 -38 -340 -105 -485 -250 -108 -108 -174 -214
-221 -353 -141 -423 -36 -921 251 -1183 207 -189 526 -272 860 -224 242 34
515 148 643 268 l32 31 0 388 0 388 -430 0 -430 0 0 -165 0 -165 225 0 225 0
0 -130 0 -129 -68 -40 c-187 -112 -372 -146 -548 -101 -99 26 -170 68 -244
147 -67 71 -111 154 -141 268 -19 68 -22 108 -22 260 0 153 3 192 21 257 53
194 166 320 339 379 91 31 288 34 373 6 116 -40 232 -149 261 -248 7 -21 14
-39 16 -39 13 0 389 72 392 75 1 2 -9 39 -23 83 -73 217 -225 368 -446 441
-146 49 -416 65 -580 36z"/>
<path d="M12180 21950 l0 -990 183 2 182 3 3 765 4 765 187 -740 c103 -407
191 -752 195 -767 l6 -28 190 0 c105 0 190 1 190 3 1 1 88 346 195 767 l194
765 3 -765 3 -765 183 -3 182 -2 0 990 0 990 -297 -2 -297 -3 -175 -667 c-97
-367 -178 -664 -181 -662 -2 3 -84 303 -180 667 l-176 662 -297 3 -297 2 0
-990z"/>
<path d="M15035 22898 c-13 -35 -714 -1833 -746 -1916 l-9 -22 212 2 212 3 80
222 81 223 396 0 397 0 37 -97 c21 -54 60 -155 87 -225 l50 -128 215 0 c200 0
214 1 209 18 -3 9 -181 454 -395 987 l-390 970 -209 3 -210 2 -17 -42z m358
-783 c69 -187 129 -348 132 -357 7 -17 -10 -18 -264 -18 -149 0 -271 2 -271 5
0 2 54 154 121 337 67 183 126 346 131 361 6 16 14 25 18 20 4 -4 64 -161 133
-348z"/>
<path d="M18930 22318 c0 -644 7 -796 40 -932 50 -200 221 -367 433 -421 165
-41 459 -44 612 -6 193 49 332 153 404 303 74 154 75 162 79 966 l3 712 -200
0 -201 0 0 -672 c0 -422 -4 -697 -11 -738 -18 -113 -90 -201 -193 -237 -79
-28 -272 -25 -347 5 -80 32 -142 90 -181 170 l-33 67 -3 702 -3 703 -199 0
-200 0 0 -622z"/>
<path d="M22600 21950 l0 -990 198 2 197 3 3 988 2 987 -200 0 -200 0 0 -990z"/>
<path d="M23180 22935 c0 -3 162 -262 360 -575 l360 -569 0 -416 0 -415 195 0
195 0 0 414 0 415 331 523 c183 288 347 547 365 576 l34 52 -229 0 -229 0
-227 -390 c-125 -215 -230 -388 -233 -385 -3 3 -108 177 -233 388 l-228 382
-230 3 c-127 1 -231 0 -231 -3z"/>
<path d="M25152 21957 c-210 -540 -382 -985 -382 -989 0 -5 92 -8 205 -8 203
0 206 0 216 23 5 12 43 112 83 222 l73 200 398 0 399 0 85 -222 86 -223 212 0
c117 0 213 3 213 7 0 5 -177 450 -392 990 l-393 983 -210 0 -210 0 -383 -983z
m723 162 c72 -194 131 -358 133 -365 3 -12 -43 -14 -262 -14 -206 0 -266 3
-266 13 -1 16 254 717 260 717 3 0 64 -158 135 -351z"/>
<path d="M26610 22775 l0 -165 293 -2 292 -3 3 -823 2 -822 198 2 197 3 3 823
2 822 290 0 290 0 0 165 0 165 -785 0 -785 0 0 -165z"/>
<path d="M28430 21950 l0 -990 198 2 197 3 3 988 2 987 -200 0 -200 0 0 -990z"/>
<path d="M31970 21950 l0 -990 198 2 197 3 3 433 2 432 390 0 390 0 0 -435 0
-435 198 2 197 3 3 988 2 987 -200 0 -200 0 0 -390 0 -390 -390 0 -390 0 0
390 0 390 -200 0 -200 0 0 -990z"/>
<path d="M33960 21950 l0 -990 750 0 750 0 0 170 0 170 -550 0 -550 0 0 270 0
270 495 0 495 0 0 165 0 165 -495 0 -495 0 0 220 0 220 530 0 530 0 0 165 0
165 -730 0 -730 0 0 -990z"/>
<path d="M35810 21950 l0 -990 198 2 197 3 5 301 5 301 156 161 c85 89 158
160 161 157 3 -3 127 -213 274 -465 l269 -460 254 0 c210 0 252 2 248 14 -3 7
-177 278 -387 601 -210 322 -379 592 -377 598 3 7 168 180 366 385 199 205
361 375 361 377 0 3 -119 5 -263 5 l-264 0 -399 -435 -399 -435 -3 435 -2 435
-200 0 -200 0 0 -990z"/>
<path d="M40035 22898 c-13 -35 -714 -1833 -746 -1916 l-9 -22 212 2 212 3 80
222 81 223 397 0 396 0 50 -127 c27 -71 66 -172 87 -225 l37 -98 215 0 c200 0
214 1 209 18 -3 9 -181 454 -395 987 l-390 970 -209 3 -210 2 -17 -42z m358
-783 c69 -187 129 -348 132 -357 7 -17 -10 -18 -264 -18 -149 0 -271 2 -271 5
0 2 54 154 121 337 67 183 126 346 131 361 6 16 14 25 18 20 4 -4 64 -161 133
-348z"/>
<path d="M41480 21950 l0 -990 185 0 185 0 2 642 3 643 396 -640 395 -640 200
0 199 0 3 988 2 987 -185 0 -185 0 0 -655 c0 -360 -3 -655 -7 -654 -5 0 -188
295 -408 655 l-399 654 -193 0 -193 0 0 -990z"/>
<path d="M45803 21957 c-211 -540 -383 -986 -383 -990 0 -4 94 -7 208 -7 l208
0 80 223 81 222 399 0 399 0 75 -196 c41 -107 81 -207 87 -222 l13 -27 211 0
211 0 -5 22 c-4 13 -181 458 -394 990 l-388 968 -210 0 -210 0 -382 -983z
m725 155 c72 -196 132 -360 132 -364 0 -5 -119 -8 -265 -8 -204 0 -265 3 -265
12 0 17 254 718 260 718 3 0 65 -161 138 -358z"/>
<path d="M47612 21953 l3 -988 182 -3 183 -2 2 646 3 646 399 -646 399 -646
198 0 199 0 0 990 0 990 -185 0 -185 0 -2 -657 -3 -658 -401 655 -401 655
-197 3 -196 2 2 -987z"/>
<path d="M51080 22233 c0 -739 -3 -796 -43 -869 -35 -62 -94 -89 -192 -89 -67
0 -87 4 -123 25 -74 42 -110 115 -127 258 -8 62 6 59 -193 37 -205 -23 -186
-11 -179 -109 26 -375 272 -580 662 -552 311 22 506 177 571 456 16 67 18 155
21 813 l4 737 -200 0 -201 0 0 -707z"/>
<path d="M52092 21958 c-210 -541 -382 -986 -382 -990 0 -5 92 -8 205 -8 203
0 206 0 216 23 5 12 43 112 83 222 l73 200 398 0 399 0 85 -222 86 -223 212 0
c117 0 213 3 213 7 0 5 -177 450 -392 990 l-393 983 -210 0 -211 0 -382 -982z
m723 160 c72 -193 131 -357 133 -365 3 -11 -45 -13 -262 -13 -206 0 -266 3
-266 13 0 16 254 717 260 717 3 0 64 -158 135 -352z"/>
<path d="M53892 21953 l3 -988 182 -3 183 -2 2 777 3 778 195 -775 195 -775
191 -3 191 -2 194 770 194 770 3 -770 2 -770 185 0 185 0 0 990 0 990 -298 0
-299 0 -173 -662 c-95 -365 -176 -666 -179 -670 -4 -4 -82 279 -175 630 -93
350 -173 652 -178 670 l-9 32 -300 0 -299 0 2 -987z"/>
<path d="M56190 21950 l0 -990 195 0 195 0 0 990 0 990 -195 0 -195 0 0 -990z"/>
<path d="M56784 22903 c13 -21 174 -274 357 -563 l334 -525 5 -425 5 -425 198
-3 197 -2 0 416 0 417 360 568 c198 313 360 571 360 574 0 3 -102 4 -227 3
l-227 -3 -219 -375 c-120 -206 -222 -381 -226 -389 -6 -10 -78 102 -242 377
l-234 392 -232 0 -233 0 24 -37z"/>
<path d="M59107 22903 c-136 -345 -747 -1923 -747 -1932 0 -8 54 -11 207 -9
l207 3 80 223 81 222 398 -2 399 -3 85 -222 86 -223 214 0 c200 0 214 1 209
18 -3 9 -180 454 -394 987 l-388 970 -211 3 -211 2 -15 -37z m358 -793 c70
-190 130 -351 132 -357 4 -10 -53 -13 -267 -13 -213 0 -271 3 -268 13 174 481
263 716 268 710 4 -4 65 -163 135 -353z"/>
<path d="M60200 22775 l0 -165 293 -2 292 -3 3 -822 2 -823 195 0 195 0 2 823
3 822 293 3 292 2 0 165 0 165 -785 0 -785 0 0 -165z"/>
<path d="M62020 21950 l0 -990 195 0 195 0 0 990 0 990 -195 0 -195 0 0 -990z"/>
<path d="M16310 22745 l0 -185 90 0 90 0 0 -38 c0 -97 -60 -185 -156 -229
l-53 -24 35 -72 c19 -40 38 -73 43 -75 20 -7 138 64 191 114 108 103 130 178
137 477 l6 217 -192 0 -191 0 0 -185z"/>
<path d="M20940 21940 l0 -980 690 0 690 0 0 170 0 170 -495 0 -495 0 0 810 0
810 -195 0 -195 0 0 -980z"/>
<path d="M37810 21940 l0 -980 693 2 692 3 0 165 0 165 -497 3 -498 2 0 810 0
810 -195 0 -195 0 0 -980z"/>
<path d="M58905 19500 c-1504 -10 -3766 -27 -4686 -36 l-657 -7 -137 -226
c-76 -124 -357 -588 -625 -1031 -1144 -1892 -1521 -2482 -2099 -3285 -1009
-1402 -2214 -2711 -3946 -4286 -1600 -1455 -3203 -2690 -4770 -3675 -1451
-912 -3075 -1857 -3905 -2272 -414 -207 -650 -304 -772 -318 -195 -21 -891
312 -2093 1001 -1054 604 -2612 1556 -3320 2028 -2204 1471 -4544 3529 -6556
5767 -1587 1766 -2889 3555 -3803 5228 -144 263 -359 685 -457 895 l-73 157
-3736 0 c-2055 0 -5318 -3 -7250 -7 l-3513 -6 79 -76 c104 -100 233 -184 429
-281 429 -211 959 -372 1982 -604 180 -41 414 -95 518 -120 569 -135 1193
-249 2270 -416 253 -39 681 -107 950 -150 1277 -206 2086 -306 4145 -515 1495
-152 2886 -304 2895 -317 1 -2 46 -77 100 -168 405 -679 999 -1594 1470 -2265
1740 -2481 3658 -4573 5938 -6476 2232 -1864 4838 -3568 8355 -5463 222 -120
508 -278 635 -353 262 -152 490 -267 620 -312 253 -88 519 -95 726 -19 79 29
555 263 822 403 1102 581 2835 1582 4089 2363 4396 2737 7426 5444 10087 9012
673 903 1452 2058 1874 2780 174 298 235 373 354 433 68 34 140 54 261 72 95
14 206 22 954 75 780 55 2112 182 3215 306 4976 560 8430 1255 9510 1914 85
52 195 131 195 141 0 4 -28 12 -62 17 -214 36 -755 60 -1888 83 -656 13 -6398
20 -8125 9z"/>
<path d="M24784 19416 c3 -30 19 -95 36 -145 180 -553 949 -1563 2250 -2956
1001 -1072 2569 -2603 3250 -3174 925 -775 3184 -2400 4590 -3303 1155 -741
1926 -1150 2287 -1213 132 -23 256 1 493 97 665 268 1971 1074 3675 2267 1124
786 2382 1724 2935 2185 408 341 1127 1023 1925 1827 2127 2142 3426 3749
3549 4390 l13 66 -9375 6 c-5156 4 -10784 7 -12505 7 l-3130 0 7 -54z m18981
-1347 c128 -142 223 -363 320 -744 21 -82 41 -153 44 -157 3 -3 261 -12 574
-19 332 -7 567 -17 567 -22 0 -27 -73 -138 -132 -202 -86 -92 -205 -183 -490
-374 -150 -100 -228 -158 -228 -169 1 -9 54 -246 120 -527 65 -280 117 -511
115 -513 -6 -7 -215 68 -277 99 -79 40 -126 72 -258 177 -71 56 -141 101 -215
136 -177 87 -173 86 -253 47 -93 -46 -194 -109 -287 -181 -99 -76 -168 -112
-281 -145 -118 -34 -216 -56 -222 -50 -3 2 29 222 71 487 l76 483 -51 47 c-28
26 -109 89 -181 140 -203 145 -277 208 -333 281 -55 73 -143 232 -133 241 3 3
234 14 514 25 386 14 509 22 515 31 5 8 91 224 192 481 100 258 186 469 189
469 4 0 23 -18 44 -41z m-12805 -210 c50 -99 93 -209 160 -412 51 -152 98
-284 105 -294 11 -15 59 -18 521 -26 280 -5 510 -10 512 -12 6 -5 -97 -205
-127 -249 -49 -70 -131 -140 -271 -233 -75 -50 -173 -121 -219 -159 l-83 -69
5 -145 c7 -191 24 -274 107 -520 66 -195 100 -327 116 -450 l7 -54 -29 19
c-85 56 -939 597 -945 598 -3 1 -221 -125 -483 -281 -263 -156 -480 -281 -483
-278 -3 3 47 263 111 578 64 315 116 578 116 583 0 6 -54 38 -119 73 -237 126
-350 218 -435 355 -47 75 -112 214 -105 222 3 2 228 15 502 27 273 13 501 28
506 33 4 6 97 207 206 448 l198 438 30 -28 c16 -15 60 -89 97 -164z m6377
-626 c148 -225 243 -478 398 -1058 115 -430 176 -609 279 -821 l63 -131 84 -6
c46 -4 561 -32 1144 -63 583 -31 1062 -58 1064 -60 6 -5 112 75 -899 -674
l-895 -662 3 -51 c11 -217 93 -502 288 -1004 182 -469 234 -632 274 -867 20
-118 38 -346 27 -346 -3 0 -429 300 -948 666 -518 366 -947 668 -954 670 -6 3
-432 -283 -946 -634 -514 -351 -946 -646 -961 -656 l-27 -18 18 64 c10 34 159
538 331 1118 l312 1055 -48 44 c-75 67 -217 172 -469 346 -740 510 -968 685
-1126 868 -63 73 -129 169 -129 190 0 4 499 7 1109 7 609 0 1128 3 1153 6 41
6 46 10 57 43 6 20 77 265 157 546 202 708 290 964 419 1230 58 118 151 275
164 275 4 0 30 -35 58 -77z"/>
</g>
</svg>
